#N canvas 212 26 1298 810 10;
#X obj 423 617 dac~ 1 2;
#X obj 899 91 *~ 0.0009;
#X obj 899 66 readsf~ 2;
#N canvas 733 170 450 300 highpass~ 0;
#X obj 23 27 inlet~;
#X obj 23 136 outlet~;
#X obj 23 105 -~;
#X obj 50 74 lop~ 50 Hz;
#X connect 0 0 2 0;
#X connect 0 0 3 0;
#X connect 2 0 1 0;
#X connect 3 0 2 1;
#X restore 421 448 pd highpass~;
#X obj -56 91 readsf~ 2;
#X obj -56 116 *~ 0.0002;
#X obj 889 -42 *~ 0.0009;
#X obj 889 -67 readsf~ 2;
#X obj -58 -97 readsf~ 2;
#X msg 77 -123 open zhappy-drum-loop.wav \, 1;
#X obj -58 -72 *~ 0.0005;
#X text 348 614 audio out;
#X text 680 456 haptic signal out;
#X obj 610 398 +~;
#N canvas 148 53 243 182 sample-for-GUI 0;
#X obj 135 38 tgl 15 0 empty empty empty 17 7 0 10 -262144 -1 -1 1
1;
#X obj 135 9 loadbang;
#X obj 10 145 outlet;
#X obj 10 114 snapshot~;
#X obj 9 37 inlet~;
#X obj 135 59 metro 100;
#X connect 0 0 5 0;
#X connect 1 0 0 0;
#X connect 3 0 2 0;
#X connect 4 0 3 0;
#X connect 5 0 3 0;
#X restore 629 431 pd sample-for-GUI;
#X floatatom 629 455 7 0 0 0 - - -;
#N canvas 733 170 450 300 highpass~ 0;
#X obj 23 27 inlet~;
#X obj 23 136 outlet~;
#X obj 23 105 -~;
#X obj 50 74 lop~ 50 Hz;
#X connect 0 0 2 0;
#X connect 0 0 3 0;
#X connect 2 0 1 0;
#X connect 3 0 2 1;
#X restore 421 419 pd highpass~;
#X obj 422 485 hip~ 5;
#X obj -56 139 touch-x2~ t 50000 0;
#X obj 421 336 *~ 30;
#X obj -54 -168 r 1.url;
#X msg 989 -84 open zdubstep-drum-loop.wav \, 1;
#X obj 887 -124 r 2.url;
#X obj -53 35 r 3.url;
#X msg 980 66 open zsax-chinese.wav \, 1;
#X obj 900 10 r 4.url;
#N canvas 432 22 798 727 storeURL 0;
#X obj 281 21 inlet;
#X obj 319 136 route list;
#X msg 240 170 open rile/da/wd;
#X obj 320 112 list prepend set;
#X obj 320 87 list prepend open;
#X obj 281 62 t b b a;
#X msg 197 169 1;
#X obj 197 202 outlet;
#X obj 427 20 inlet;
#X obj 427 52 t b b;
#X connect 0 0 5 0;
#X connect 1 0 2 0;
#X connect 2 0 7 0;
#X connect 3 0 1 0;
#X connect 4 0 3 0;
#X connect 5 0 6 0;
#X connect 5 1 2 0;
#X connect 5 2 4 0;
#X connect 6 0 7 0;
#X connect 8 0 9 0;
#X connect 9 0 6 0;
#X connect 9 1 2 0;
#X restore -54 -139 pd storeURL;
#X obj 44 87 r ft3;
#X msg 121 48 open zelectro-house-loop.wav \, 1;
#N canvas 446 22 450 300 line 0;
#X obj 72 38 inlet;
#X obj 66 119 lop~ 10;
#X obj 66 143 lop~ 18;
#X obj 66 95 vline~;
#X obj 66 70 pack f 20;
#X obj 72 174 outlet~;
#X connect 0 0 4 0;
#X connect 1 0 2 0;
#X connect 2 0 5 0;
#X connect 3 0 1 0;
#X connect 4 0 3 0;
#X restore 42 -89 pd line;
#X obj 30 -116 r ft1;
#N canvas 446 22 450 300 line 0;
#X obj 72 38 inlet;
#X obj 66 119 lop~ 10;
#X obj 66 143 lop~ 18;
#X obj 66 95 vline~;
#X obj 66 70 pack f 20;
#X obj 72 174 outlet~;
#X connect 0 0 4 0;
#X connect 1 0 2 0;
#X connect 2 0 5 0;
#X connect 3 0 1 0;
#X connect 4 0 3 0;
#X restore 43 115 pd line;
#N canvas 446 22 450 300 line 0;
#X obj 72 38 inlet;
#X obj 66 119 lop~ 10;
#X obj 66 143 lop~ 18;
#X obj 66 95 vline~;
#X obj 66 70 pack f 20;
#X obj 72 174 outlet~;
#X connect 0 0 4 0;
#X connect 1 0 2 0;
#X connect 2 0 5 0;
#X connect 3 0 1 0;
#X connect 4 0 3 0;
#X restore 763 -45 pd line;
#X obj 764 -73 r ft2;
#N canvas 446 22 450 300 line 0;
#X obj 72 38 inlet;
#X obj 66 119 lop~ 10;
#X obj 66 143 lop~ 18;
#X obj 66 95 vline~;
#X obj 66 70 pack f 20;
#X obj 72 174 outlet~;
#X connect 0 0 4 0;
#X connect 1 0 2 0;
#X connect 2 0 5 0;
#X connect 3 0 1 0;
#X connect 4 0 3 0;
#X restore 765 86 pd line;
#X obj 766 58 r ft4;
#X obj 771 -8 touch-x2~ t 50000 0;
#X obj 771 139 touch-x2~ t 50000 0;
#X obj -59 -48 touch-x2~ t 50000 0;
#N canvas 432 22 798 727 storeURL 0;
#X obj 281 21 inlet;
#X obj 319 136 route list;
#X msg 240 170 open rile/da/wd;
#X obj 320 112 list prepend set;
#X obj 320 87 list prepend open;
#X obj 281 62 t b b a;
#X msg 197 169 1;
#X obj 197 202 outlet;
#X obj 427 20 inlet;
#X obj 427 52 t b b;
#X connect 0 0 5 0;
#X connect 1 0 2 0;
#X connect 2 0 7 0;
#X connect 3 0 1 0;
#X connect 4 0 3 0;
#X connect 5 0 6 0;
#X connect 5 1 2 0;
#X connect 5 2 4 0;
#X connect 6 0 7 0;
#X connect 8 0 9 0;
#X connect 9 0 6 0;
#X connect 9 1 2 0;
#X restore -56 63 pd storeURL;
#N canvas 432 22 798 727 storeURL 0;
#X obj 281 21 inlet;
#X obj 319 136 route list;
#X msg 240 170 open rile/da/wd;
#X obj 320 112 list prepend set;
#X obj 320 87 list prepend open;
#X obj 281 62 t b b a;
#X msg 197 169 1;
#X obj 197 202 outlet;
#X obj 427 20 inlet;
#X obj 427 52 t b b;
#X connect 0 0 5 0;
#X connect 1 0 2 0;
#X connect 2 0 7 0;
#X connect 3 0 1 0;
#X connect 4 0 3 0;
#X connect 5 0 6 0;
#X connect 5 1 2 0;
#X connect 5 2 4 0;
#X connect 6 0 7 0;
#X connect 8 0 9 0;
#X connect 9 0 6 0;
#X connect 9 1 2 0;
#X restore 885 -98 pd storeURL;
#N canvas 432 22 798 727 storeURL 0;
#X obj 281 21 inlet;
#X obj 319 136 route list;
#X msg 240 170 open rile/da/wd;
#X obj 320 112 list prepend set;
#X obj 320 87 list prepend open;
#X obj 281 62 t b b a;
#X msg 197 169 1;
#X obj 197 202 outlet;
#X obj 427 20 inlet;
#X obj 427 52 t b b;
#X connect 0 0 5 0;
#X connect 1 0 2 0;
#X connect 2 0 7 0;
#X connect 3 0 1 0;
#X connect 4 0 3 0;
#X connect 5 0 6 0;
#X connect 5 1 2 0;
#X connect 5 2 4 0;
#X connect 6 0 7 0;
#X connect 8 0 9 0;
#X connect 9 0 6 0;
#X connect 9 1 2 0;
#X restore 902 39 pd storeURL;
#X obj 319 -95 loadbang;
#X msg 323 -51 0.05;
#X obj 521 473 hip~ 20;
#X obj 521 525 *~;
#X obj 826 539 *~;
#X obj 879 254 r pulse;
#X obj 808 237 r pulseon;
#X obj 955 469 sel 3;
#X obj 982 495 t b;
#X msg 866 510 1;
#X msg 980 523 0;
#X msg 897 510 0;
#X msg 948 518 1;
#X obj 136 430 r onoff;
#X obj 136 453 sel 0 1;
#X obj 134 546 vline~;
#X obj 425 555 *~;
#X obj 489 583 *~;
#X msg 128 509 0 72;
#X msg 176 507 1 22;
#X obj 954 427 r version;
#N canvas 0 22 1440 803 Synth 0;
#X obj 172 225 bng 15 250 50 0 empty empty empty 17 7 0 10 -262144
-1 -1;
#X obj 151 499 outlet~;
#X msg 172 303 0.5;
#X obj 151 352 osc~;
#X obj 95 143 t f b;
#X obj 239 142 t f b;
#X obj 239 415 *~;
#X obj 151 469 *~ 1;
#X obj 373 141 t f b;
#X obj 373 414 *~;
#X obj 497 141 t f b;
#X obj 497 414 *~;
#X obj 625 142 t f b;
#X obj 625 415 *~;
#X obj 763 142 t f b;
#X obj 763 415 *~;
#X obj 887 141 t f b;
#X obj 887 414 *~;
#X obj 254 392 *~ 0.24;
#X obj 388 391 *~ 0.19;
#X obj 512 390 *~ 0.14;
#X obj 640 390 *~ 0.11;
#X obj 301 349 osc~;
#X obj 434 346 osc~;
#X obj 239 253 line;
#X obj 373 252 line;
#X obj 497 252 line;
#X obj 763 253 line;
#X obj 887 252 line;
#X obj 625 253 line;
#X obj 985 364 vline~;
#X obj 95 182 / 8;
#X obj 239 166 / 8;
#X obj 373 165 / 8;
#X obj 497 165 / 8;
#X obj 625 166 / 8;
#X obj 763 166 / 8;
#X obj 887 165 / 8;
#X obj 1034 365 s synth_q2;
#N canvas 29 22 1285 776 noise 0;
#X obj 479 52 noise~;
#X obj 343 436 hip~ 15000;
#X obj 343 459 lop~ 20000;
#X obj 478 646 *~ 0.5;
#X obj 478 673 outlet~;
#X obj 343 370 hip~ 15000;
#X obj 343 392 hip~ 15000;
#X obj 343 413 hip~ 15000;
#X obj 343 481 lop~ 20000;
#X obj 343 505 lop~ 20000;
#X obj 343 529 lop~ 20000;
#X obj 479 409 *~ 0.4;
#X obj 563 367 hip~ 10000;
#X obj 563 390 hip~ 10000;
#X obj 563 413 hip~ 10000;
#X obj 563 436 hip~ 10000;
#X obj 563 460 lop~ 12000;
#X obj 563 482 lop~ 12000;
#X obj 562 503 lop~ 12000;
#X obj 562 525 lop~ 12000;
#X obj 659 365 hip~ 5000;
#X obj 659 388 hip~ 5000;
#X obj 659 411 hip~ 5000;
#X obj 659 434 hip~ 5000;
#X obj 659 458 lop~ 8000;
#X obj 659 480 lop~ 8000;
#X obj 658 501 lop~ 8000;
#X obj 658 523 lop~ 8000;
#X connect 0 0 5 0;
#X connect 0 0 11 0;
#X connect 0 0 12 0;
#X connect 0 0 20 0;
#X connect 1 0 2 0;
#X connect 2 0 8 0;
#X connect 3 0 4 0;
#X connect 5 0 6 0;
#X connect 6 0 7 0;
#X connect 7 0 1 0;
#X connect 8 0 9 0;
#X connect 9 0 10 0;
#X connect 10 0 3 0;
#X connect 11 0 3 0;
#X connect 12 0 13 0;
#X connect 13 0 14 0;
#X connect 14 0 15 0;
#X connect 15 0 16 0;
#X connect 16 0 17 0;
#X connect 17 0 18 0;
#X connect 18 0 19 0;
#X connect 19 0 3 0;
#X connect 20 0 21 0;
#X connect 21 0 22 0;
#X connect 22 0 23 0;
#X connect 23 0 24 0;
#X connect 24 0 25 0;
#X connect 25 0 26 0;
#X connect 26 0 27 0;
#X connect 27 0 3 0;
#X restore 190 33 pd noise;
#X obj 191 65 *~ 1;
#X obj 778 390 *~ 0.4;
#X obj 902 389 *~ 0.32;
#X obj 94 92 t f f;
#X msg 373 224 \$1 8;
#X msg 497 224 \$1 8;
#X msg 239 225 \$1 8;
#X msg 625 225 \$1 8;
#X msg 763 225 \$1 8;
#X msg 887 224 \$1 8;
#X obj 230 349 bp~ 400 65;
#X obj 364 346 bp~ 400 65;
#X obj 497 347 bp~ 400 65;
#X obj 625 347 bp~ 400 65;
#X obj 763 348 bp~ 400 61;
#X obj 887 348 bp~ 400 58;
#X obj 93 60 inlet;
#X msg 1209 188 \$1 500;
#X msg 985 340 \$1 500;
#X obj 239 197 * 2;
#X obj 373 196 * 3;
#X obj 497 196 * 4;
#X obj 625 197 * 5;
#X obj 763 197 * 7;
#X obj 887 196 * 9;
#X obj 1209 210 line;
#X obj 997 91 loadbang;
#X msg 1209 154 20;
#X msg 989 302 1;
#X connect 0 0 2 0;
#X connect 2 0 3 1;
#X connect 2 0 22 1;
#X connect 2 0 23 1;
#X connect 3 0 7 0;
#X connect 4 0 31 0;
#X connect 4 1 0 0;
#X connect 5 0 32 0;
#X connect 6 0 7 0;
#X connect 7 0 1 0;
#X connect 8 0 33 0;
#X connect 9 0 7 0;
#X connect 10 0 34 0;
#X connect 11 0 7 0;
#X connect 12 0 35 0;
#X connect 13 0 7 0;
#X connect 14 0 36 0;
#X connect 15 0 7 0;
#X connect 16 0 37 0;
#X connect 17 0 7 0;
#X connect 18 0 6 1;
#X connect 19 0 9 1;
#X connect 20 0 11 1;
#X connect 21 0 13 1;
#X connect 22 0 6 0;
#X connect 23 0 9 0;
#X connect 24 0 22 0;
#X connect 24 0 50 1;
#X connect 25 0 23 0;
#X connect 25 0 51 1;
#X connect 26 0 52 1;
#X connect 27 0 54 1;
#X connect 28 0 55 1;
#X connect 29 0 53 1;
#X connect 30 0 18 0;
#X connect 30 0 19 0;
#X connect 30 0 20 0;
#X connect 30 0 21 0;
#X connect 30 0 41 0;
#X connect 30 0 42 0;
#X connect 31 0 3 0;
#X connect 32 0 59 0;
#X connect 33 0 60 0;
#X connect 34 0 61 0;
#X connect 35 0 62 0;
#X connect 36 0 63 0;
#X connect 37 0 64 0;
#X connect 39 0 40 0;
#X connect 40 0 50 0;
#X connect 40 0 51 0;
#X connect 40 0 52 0;
#X connect 40 0 53 0;
#X connect 40 0 54 0;
#X connect 40 0 55 0;
#X connect 41 0 15 1;
#X connect 42 0 17 1;
#X connect 43 0 4 0;
#X connect 43 1 5 0;
#X connect 43 1 8 0;
#X connect 43 1 10 0;
#X connect 43 1 12 0;
#X connect 43 1 14 0;
#X connect 43 1 16 0;
#X connect 44 0 25 0;
#X connect 45 0 26 0;
#X connect 46 0 24 0;
#X connect 47 0 29 0;
#X connect 48 0 27 0;
#X connect 49 0 28 0;
#X connect 50 0 6 0;
#X connect 51 0 9 0;
#X connect 52 0 11 0;
#X connect 53 0 13 0;
#X connect 54 0 15 0;
#X connect 55 0 17 0;
#X connect 56 0 43 0;
#X connect 57 0 65 0;
#X connect 58 0 30 0;
#X connect 58 0 38 0;
#X connect 59 0 50 1;
#X connect 59 0 22 0;
#X connect 60 0 51 1;
#X connect 60 0 23 0;
#X connect 61 0 52 1;
#X connect 62 0 53 1;
#X connect 63 0 54 1;
#X connect 64 0 55 1;
#X connect 65 0 50 2;
#X connect 65 0 51 2;
#X connect 65 0 52 2;
#X connect 65 0 53 2;
#X connect 65 0 54 2;
#X connect 65 0 55 2;
#X connect 66 0 68 0;
#X connect 66 0 67 0;
#X connect 67 0 57 0;
#X connect 68 0 58 0;
#X restore 818 390 pd Synth;
#X obj 814 355 f 60;
#X obj 248 426 r volume;
#X obj 282 502 vline~;
#X obj 269 468 pack f 22;
#X obj 430 591 *~;
#X obj 820 312 metro 1000;
#X obj 421 521 *~ 0.2;
#X obj 523 448 *~ 2000;
#X connect 1 0 37 0;
#X connect 2 0 1 0;
#X connect 2 1 1 0;
#X connect 2 2 41 1;
#X connect 3 0 17 0;
#X connect 4 0 5 0;
#X connect 4 1 5 0;
#X connect 4 2 39 1;
#X connect 5 0 18 0;
#X connect 6 0 36 0;
#X connect 7 0 6 0;
#X connect 7 1 6 0;
#X connect 7 2 40 1;
#X connect 8 0 10 0;
#X connect 8 1 10 0;
#X connect 8 2 26 1;
#X connect 10 0 38 0;
#X connect 13 0 14 0;
#X connect 13 0 71 0;
#X connect 14 0 15 0;
#X connect 16 0 3 0;
#X connect 17 0 70 0;
#X connect 18 0 19 0;
#X connect 18 1 13 0;
#X connect 19 0 16 0;
#X connect 20 0 26 0;
#X connect 22 0 40 0;
#X connect 23 0 39 0;
#X connect 25 0 41 0;
#X connect 26 0 8 0;
#X connect 27 0 31 0;
#X connect 29 0 38 1;
#X connect 30 0 29 0;
#X connect 31 0 18 1;
#X connect 32 0 36 1;
#X connect 33 0 32 0;
#X connect 34 0 37 1;
#X connect 35 0 34 0;
#X connect 36 0 19 0;
#X connect 36 1 13 0;
#X connect 37 0 19 0;
#X connect 37 1 13 0;
#X connect 38 0 19 0;
#X connect 38 1 13 0;
#X connect 39 0 4 0;
#X connect 40 0 7 0;
#X connect 41 0 2 0;
#X connect 42 0 43 0;
#X connect 43 0 29 0;
#X connect 43 0 31 0;
#X connect 43 0 32 0;
#X connect 43 0 34 0;
#X connect 44 0 45 0;
#X connect 45 0 59 0;
#X connect 46 0 59 0;
#X connect 47 0 69 1;
#X connect 48 0 69 0;
#X connect 49 0 51 0;
#X connect 49 0 53 0;
#X connect 49 1 50 0;
#X connect 50 0 54 0;
#X connect 50 0 52 0;
#X connect 51 0 46 1;
#X connect 52 0 46 1;
#X connect 53 0 45 1;
#X connect 54 0 45 1;
#X connect 55 0 56 0;
#X connect 56 0 60 0;
#X connect 56 1 61 0;
#X connect 57 0 58 1;
#X connect 57 0 59 1;
#X connect 58 0 68 0;
#X connect 59 0 0 1;
#X connect 60 0 57 0;
#X connect 61 0 57 0;
#X connect 62 0 49 0;
#X connect 63 0 46 0;
#X connect 64 0 63 0;
#X connect 65 0 67 0;
#X connect 66 0 68 1;
#X connect 67 0 66 0;
#X connect 68 0 0 0;
#X connect 69 0 64 0;
#X connect 70 0 58 0;
#X connect 71 0 44 0;
