#N canvas 314 69 628 311 10;
#X obj 6 7 inlet~;
#X obj 78 9 inlet~;
#X obj 62 68 -~;
#X obj 200 112 biquad~ 0 0 1 -1 0;
#X obj 426 12 block~ 1;
#X obj 7 252 *~ -1;
#X obj 7 275 outlet~;
#X obj 98 277 outlet~;
#X text 213 233 Edgar Berdahl \, Oct 2010;
#X obj 62 144 *~ \$2;
#X msg 200 80 clear;
#X obj 200 40 r clearall;
#X obj 200 61 bng 15 250 50 0 empty empty empty 17 7 0 10 -262144 -1
-1;
#X obj 295 28 r \$1;
#X obj 295 51 unpack 0 0;
#X obj 426 58 loadbang;
#X text 467 77 For now assume;
#X text 466 85 this audio sampling rate;
#X obj 426 143 * \$3;
#X obj 441 120 t b f;
#X obj 200 135 *~ 0;
#X text 211 166 Arg 1: Object label;
#X text 211 202 Arg 3: Damping in N/(m/s);
#X msg 426 81 44100;
#X obj 62 107 *~;
#X text 211 185 Arg 2: "Square" Stiffness in N/(m^2);
#X obj 62 211 *~;
#X text 212 271 fexpr~ or expr~ or >~ is needed;
#X obj 131 144 gts~;
#X connect 0 0 2 0;
#X connect 1 0 2 1;
#X connect 2 0 3 0;
#X connect 2 0 24 0;
#X connect 2 0 24 1;
#X connect 2 0 28 1;
#X connect 3 0 20 0;
#X connect 5 0 6 0;
#X connect 9 0 26 0;
#X connect 10 0 3 0;
#X connect 11 0 12 0;
#X connect 12 0 10 0;
#X connect 13 0 14 0;
#X connect 14 0 9 1;
#X connect 14 1 19 0;
#X connect 15 0 23 0;
#X connect 18 0 20 1;
#X connect 19 0 18 0;
#X connect 19 1 18 1;
#X connect 20 0 26 0;
#X connect 23 0 18 0;
#X connect 24 0 9 0;
#X connect 26 0 5 0;
#X connect 26 0 7 0;
#X connect 28 1 26 1;
