#N canvas 571 22 477 810 10;
#X floatatom 357 67 5 0 0 0 - - -;
#X obj 184 742 dac~;
#X text 391 67 m;
#X text 304 66 Position;
#X text 238 106 dev2;
#X text 124 105 dev1;
#X text 290 116 FireFader simulation patch;
#X text 290 131 Edgar Berdahl \, TU Berlin \, 2013;
#X obj 6 123 pluck_one_string_pitch_control_auto_timbre;
#X obj 128 -18 r firefader;
#X obj 128 27 vline~;
#X obj 259 471 r volume;
#X obj 160 532 *~ 100;
#X obj 185 665 *~;
#X obj 252 667 *~;
#X obj 321 649 vline~;
#X obj 399 602 sel 0 1;
#X msg 379 621 0 72;
#X msg 424 622 1 12;
#X obj 403 582 r onoff;
#X obj 211 534 *~ 5;
#X obj 73 472 *~ 2000;
#X obj 128 5 pack f 4;
#X text 181 48 25;
#X text 179 74 16;
#X text 181 6 20ms;
#X obj 128 48 lop~ 200;
#X obj 128 75 lop~ 370;
#X connect 0 0 8 2;
#X connect 8 1 21 0;
#X connect 8 3 12 0;
#X connect 8 3 20 0;
#X connect 9 0 22 0;
#X connect 10 0 26 0;
#X connect 11 0 12 1;
#X connect 12 0 14 0;
#X connect 13 0 1 0;
#X connect 14 0 1 1;
#X connect 15 0 13 1;
#X connect 15 0 14 1;
#X connect 16 0 17 0;
#X connect 16 1 18 0;
#X connect 17 0 15 0;
#X connect 18 0 15 0;
#X connect 19 0 16 0;
#X connect 20 0 13 0;
#X connect 21 0 14 0;
#X connect 22 0 10 0;
#X connect 26 0 27 0;
#X connect 27 0 8 1;
