#N canvas 535 23 499 832 10;
#X obj 125 805 dac~;
#X text 238 106 dev2;
#X text 124 105 dev1;
#X text 290 116 FireFader simulation patch;
#X text 290 131 Edgar Berdahl \, TU Berlin \, 2013;
#X text -1 3 pluck_harp10 demonstration patch;
#X obj 217 1 r firefader;
#X obj 217 49 vline~;
#X obj 217 70 lop~ 25;
#X obj 217 97 lop~ 16;
#X obj 217 27 pack f 20;
#X obj 6 123 pluck_harp10;
#X obj 188 671 *~ 20;
#X obj 275 629 r volume;
#X obj 123 670 *~ 10;
#X obj 122 718 *~;
#X obj 189 720 *~;
#X obj 258 702 vline~;
#X obj 336 655 sel 0 1;
#X msg 316 674 0 72;
#X msg 361 675 1 12;
#X obj 340 635 r onoff;
#X connect 6 0 10 0;
#X connect 7 0 8 0;
#X connect 8 0 9 0;
#X connect 9 0 11 1;
#X connect 10 0 7 0;
#X connect 11 1 14 0;
#X connect 11 3 12 0;
#X connect 11 4 12 0;
#X connect 12 0 16 0;
#X connect 13 0 12 1;
#X connect 14 0 15 0;
#X connect 15 0 0 1;
#X connect 16 0 0 0;
#X connect 17 0 15 1;
#X connect 17 0 16 1;
#X connect 18 0 19 0;
#X connect 18 1 20 0;
#X connect 19 0 17 0;
#X connect 20 0 17 0;
#X connect 21 0 18 0;
